<?xml version="1.0" standalone="no"?>
<!DOCTYPE svg PUBLIC "-//W3C//DTD SVG 20010904//EN"
 "http://www.w3.org/TR/2001/REC-SVG-20010904/DTD/svg10.dtd">
<svg version="1.0" xmlns="http://www.w3.org/2000/svg"
 width="700.000000pt" height="700.000000pt" viewBox="0 0 700.000000 700.000000"
 preserveAspectRatio="xMidYMid meet">
<metadata>
Created by potrace 1.14, written by Peter Selinger 2001-2017
</metadata>
<g transform="translate(0.000000,700.000000) scale(0.100000,-0.100000)"
fill="#000000" stroke="none">
<path d="M0 3500 l0 -3500 3500 0 3500 0 0 3500 0 3500 -3500 0 -3500 0 0
-3500z m5508 2623 c-6 -7 -460 -462 -1009 -1011 l-999 -999 -993 993 c-546
546 -1000 1001 -1009 1011 -16 17 55 18 2002 18 1603 0 2016 -3 2008 -12z
m626 -1386 c-1 -430 -2 -788 -3 -794 -1 -10 -168 -13 -792 -13 -435 1 -789 4
-785 8 7 8 1580 1582 1581 1582 0 0 -1 -352 -1 -783z m-4481 -2 c426 -426 780
-782 787 -790 10 -12 -88 -14 -779 -14 -607 0 -791 3 -792 12 -5 47 -3 1567 2
1567 4 0 355 -349 782 -775z m786 -1682 c-14 -16 -1545 -1547 -1562 -1561 -9
-8 -12 149 -11 776 1 433 2 790 3 793 0 3 356 6 791 6 658 0 788 -2 779 -14z
m3694 3 c3 -10 1 -1551 -2 -1567 -1 -5 -1543 1532 -1572 1567 -6 8 199 11 781
11 562 0 790 -3 793 -11z m-623 -2185 c0 -3 -905 -6 -2010 -6 -1106 0 -2009 4
-2007 8 1 5 454 460 1005 1011 l1003 1003 1004 -1005 c553 -552 1005 -1007
1005 -1011z"/>
</g>
</svg>
