<?xml version="1.0" encoding="UTF-8" standalone="no"?>
<!-- Created with Inkscape (http://www.inkscape.org/) -->

<svg
   version="1.1"
   id="svg1"
   width="2048"
   height="1106.6667"
   viewBox="0 0 2048 1106.6667"
   xml:space="preserve"
   sodipodi:docname="ComicBannerMask.svg"
   inkscape:version="1.4.4 (dcaf3e7d9e, 2026-05-05)"
   inkscape:export-filename="ComicBannerMask.svg"
   inkscape:export-xdpi="300"
   inkscape:export-ydpi="300"
   xmlns:inkscape="http://www.inkscape.org/namespaces/inkscape"
   xmlns:sodipodi="http://sodipodi.sourceforge.net/DTD/sodipodi-0.dtd"
   xmlns:xlink="http://www.w3.org/1999/xlink"
   xmlns="http://www.w3.org/2000/svg"
   xmlns:svg="http://www.w3.org/2000/svg"><sodipodi:namedview
     id="namedview1"
     pagecolor="#ffffff"
     bordercolor="#666666"
     borderopacity="1.0"
     inkscape:showpageshadow="2"
     inkscape:pageopacity="0.0"
     inkscape:pagecheckerboard="0"
     inkscape:deskcolor="#d1d1d1"
     inkscape:zoom="0.67258008"
     inkscape:cx="651.22357"
     inkscape:cy="547.14674"
     inkscape:window-width="5120"
     inkscape:window-height="1420"
     inkscape:window-x="0"
     inkscape:window-y="20"
     inkscape:window-maximized="1"
     inkscape:current-layer="g1" /><defs
     id="defs1"><linearGradient
       id="linearGradient398"><stop
         style="stop-color:#fa8702;stop-opacity:1;"
         offset="0"
         id="stop398" /><stop
         style="stop-color:#f9ed04;stop-opacity:1;"
         offset="1"
         id="stop399" /></linearGradient><linearGradient
       id="linearGradient395"><stop
         style="stop-color:#e61858;stop-opacity:1;"
         offset="0"
         id="stop395" /><stop
         style="stop-color:#fd494e;stop-opacity:1;"
         offset="1"
         id="stop396" /></linearGradient><linearGradient
       id="linearGradient394"><stop
         style="stop-color:#000000;stop-opacity:1;"
         offset="0"
         id="stop393" /><stop
         style="stop-color:#000000;stop-opacity:0;"
         offset="1"
         id="stop394" /></linearGradient><linearGradient
       id="linearGradient392"><stop
         style="stop-color:#000000;stop-opacity:1;"
         offset="0"
         id="stop391" /><stop
         style="stop-color:#000000;stop-opacity:0;"
         offset="1"
         id="stop392" /></linearGradient><linearGradient
       id="linearGradient390"><stop
         style="stop-color:#000000;stop-opacity:0;"
         offset="0"
         id="stop390" /><stop
         style="stop-color:#000000;stop-opacity:1;"
         offset="1"
         id="stop389" /></linearGradient><linearGradient
       id="linearGradient388"><stop
         style="stop-color:#000000;stop-opacity:0;"
         offset="0"
         id="stop388" /><stop
         style="stop-color:#000000;stop-opacity:1;"
         offset="1"
         id="stop387" /></linearGradient><linearGradient
       id="linearGradient386"><stop
         style="stop-color:#000000;stop-opacity:0;"
         offset="0"
         id="stop386" /><stop
         style="stop-color:#000000;stop-opacity:1;"
         offset="1"
         id="stop385" /></linearGradient><linearGradient
       id="linearGradient384"><stop
         style="stop-color:#000000;stop-opacity:0;"
         offset="0"
         id="stop384" /><stop
         style="stop-color:#000000;stop-opacity:1;"
         offset="1"
         id="stop383" /></linearGradient><linearGradient
       id="linearGradient382"><stop
         style="stop-color:#000000;stop-opacity:0;"
         offset="0"
         id="stop382" /><stop
         style="stop-color:#000000;stop-opacity:1;"
         offset="1"
         id="stop381" /></linearGradient><linearGradient
       id="linearGradient380"><stop
         style="stop-color:#000000;stop-opacity:0;"
         offset="0"
         id="stop380" /><stop
         style="stop-color:#000000;stop-opacity:1;"
         offset="1"
         id="stop379" /></linearGradient><linearGradient
       id="linearGradient378"><stop
         style="stop-color:#000000;stop-opacity:0;"
         offset="0"
         id="stop378" /><stop
         style="stop-color:#000000;stop-opacity:1;"
         offset="1"
         id="stop377" /></linearGradient><linearGradient
       id="linearGradient376"><stop
         style="stop-color:#000000;stop-opacity:0;"
         offset="0"
         id="stop376" /><stop
         style="stop-color:#000000;stop-opacity:1;"
         offset="1"
         id="stop375" /></linearGradient><linearGradient
       id="linearGradient374"><stop
         style="stop-color:#000000;stop-opacity:0;"
         offset="0"
         id="stop374" /><stop
         style="stop-color:#000000;stop-opacity:1;"
         offset="1"
         id="stop373" /></linearGradient><linearGradient
       id="linearGradient372"><stop
         style="stop-color:#000000;stop-opacity:0;"
         offset="0"
         id="stop372" /><stop
         style="stop-color:#000000;stop-opacity:1;"
         offset="1"
         id="stop371" /></linearGradient><linearGradient
       id="linearGradient370"><stop
         style="stop-color:#000000;stop-opacity:0;"
         offset="0"
         id="stop370" /><stop
         style="stop-color:#000000;stop-opacity:1;"
         offset="1"
         id="stop369" /></linearGradient><linearGradient
       id="linearGradient368"><stop
         style="stop-color:#000000;stop-opacity:0;"
         offset="0"
         id="stop368" /><stop
         style="stop-color:#000000;stop-opacity:1;"
         offset="1"
         id="stop367" /></linearGradient><linearGradient
       id="linearGradient366"><stop
         style="stop-color:#000000;stop-opacity:0;"
         offset="0"
         id="stop366" /><stop
         style="stop-color:#000000;stop-opacity:1;"
         offset="1"
         id="stop365" /></linearGradient><linearGradient
       id="linearGradient364"><stop
         style="stop-color:#000000;stop-opacity:0;"
         offset="0"
         id="stop364" /><stop
         style="stop-color:#000000;stop-opacity:1;"
         offset="1"
         id="stop363" /></linearGradient><linearGradient
       id="linearGradient362"><stop
         style="stop-color:#000000;stop-opacity:0;"
         offset="0"
         id="stop362" /><stop
         style="stop-color:#000000;stop-opacity:1;"
         offset="1"
         id="stop361" /></linearGradient><linearGradient
       id="linearGradient360"><stop
         style="stop-color:#000000;stop-opacity:0;"
         offset="0"
         id="stop360" /><stop
         style="stop-color:#000000;stop-opacity:1;"
         offset="1"
         id="stop359" /></linearGradient><linearGradient
       id="linearGradient358"><stop
         style="stop-color:#000000;stop-opacity:0;"
         offset="0"
         id="stop358" /><stop
         style="stop-color:#000000;stop-opacity:1;"
         offset="1"
         id="stop357" /></linearGradient><linearGradient
       id="linearGradient356"><stop
         style="stop-color:#000000;stop-opacity:0;"
         offset="0"
         id="stop356" /><stop
         style="stop-color:#000000;stop-opacity:1;"
         offset="1"
         id="stop355" /></linearGradient><linearGradient
       id="linearGradient354"><stop
         style="stop-color:#000000;stop-opacity:0;"
         offset="0"
         id="stop354" /><stop
         style="stop-color:#000000;stop-opacity:1;"
         offset="1"
         id="stop353" /></linearGradient><linearGradient
       id="linearGradient352"><stop
         style="stop-color:#000000;stop-opacity:0;"
         offset="0"
         id="stop352" /><stop
         style="stop-color:#000000;stop-opacity:1;"
         offset="1"
         id="stop351" /></linearGradient><linearGradient
       id="linearGradient350"><stop
         style="stop-color:#000000;stop-opacity:0;"
         offset="0"
         id="stop350" /><stop
         style="stop-color:#000000;stop-opacity:1;"
         offset="1"
         id="stop349" /></linearGradient><linearGradient
       id="linearGradient348"><stop
         style="stop-color:#000000;stop-opacity:0;"
         offset="0"
         id="stop348" /><stop
         style="stop-color:#000000;stop-opacity:1;"
         offset="1"
         id="stop347" /></linearGradient><linearGradient
       id="linearGradient346"><stop
         style="stop-color:#000000;stop-opacity:0;"
         offset="0"
         id="stop346" /><stop
         style="stop-color:#000000;stop-opacity:1;"
         offset="1"
         id="stop345" /></linearGradient><linearGradient
       id="linearGradient344"><stop
         style="stop-color:#000000;stop-opacity:0;"
         offset="0"
         id="stop344" /><stop
         style="stop-color:#000000;stop-opacity:1;"
         offset="1"
         id="stop343" /></linearGradient><linearGradient
       id="linearGradient342"><stop
         style="stop-color:#000000;stop-opacity:0;"
         offset="0"
         id="stop342" /><stop
         style="stop-color:#000000;stop-opacity:1;"
         offset="1"
         id="stop341" /></linearGradient><linearGradient
       id="linearGradient340"><stop
         style="stop-color:#000000;stop-opacity:0.5;"
         offset="0"
         id="stop340" /><stop
         style="stop-color:#000000;stop-opacity:1;"
         offset="1"
         id="stop339" /></linearGradient><linearGradient
       id="linearGradient289"><stop
         style="stop-color:#000000;stop-opacity:1;"
         offset="0"
         id="stop289" /><stop
         style="stop-color:#000000;stop-opacity:0;"
         offset="1"
         id="stop290" /></linearGradient><linearGradient
       id="linearGradient51"><stop
         style="stop-color:#e61858;stop-opacity:1;"
         offset="0"
         id="stop52" /><stop
         style="stop-color:#fd4a4d;stop-opacity:1;"
         offset="1"
         id="stop51" /></linearGradient><linearGradient
       xlink:href="#linearGradient51"
       id="linearGradient52"
       x1="-2016.8267"
       y1="932.02808"
       x2="-82.643974"
       y2="932.02808"
       gradientUnits="userSpaceOnUse"
       gradientTransform="matrix(0.99996121,0,0,1.2114588,-0.04071419,-218.37061)" /><linearGradient
       xlink:href="#linearGradient370"
       id="linearGradient290"
       x1="2157.1689"
       y1="215.37071"
       x2="2319.48"
       y2="215.37071"
       gradientUnits="userSpaceOnUse" /><linearGradient
       xlink:href="#linearGradient372"
       id="linearGradient291"
       x1="2156.7078"
       y1="215.14017"
       x2="2574.4746"
       y2="215.14017"
       gradientUnits="userSpaceOnUse" /><linearGradient
       xlink:href="#linearGradient374"
       id="linearGradient292"
       x1="2159.0132"
       y1="128.2207"
       x2="2502.541"
       y2="128.2207"
       gradientUnits="userSpaceOnUse" /><linearGradient
       xlink:href="#linearGradient376"
       id="linearGradient293"
       x1="2159.0132"
       y1="113.23459"
       x2="2710.9634"
       y2="113.23459"
       gradientUnits="userSpaceOnUse" /><linearGradient
       xlink:href="#linearGradient378"
       id="linearGradient294"
       x1="2159.0132"
       y1="58.131813"
       x2="2587.8467"
       y2="58.131813"
       gradientUnits="userSpaceOnUse" /><linearGradient
       xlink:href="#linearGradient380"
       id="linearGradient295"
       x1="2175.6133"
       y1="-13.801535"
       x2="2517.7578"
       y2="-13.801535"
       gradientUnits="userSpaceOnUse" /><linearGradient
       xlink:href="#linearGradient382"
       id="linearGradient296"
       x1="2365.5911"
       y1="2.567915"
       x2="2687.9077"
       y2="2.567915"
       gradientUnits="userSpaceOnUse" /><linearGradient
       xlink:href="#linearGradient384"
       id="linearGradient297"
       x1="2530.6689"
       y1="25.162365"
       x2="2823.0134"
       y2="25.162365"
       gradientUnits="userSpaceOnUse" /><linearGradient
       xlink:href="#linearGradient386"
       id="linearGradient298"
       x1="2618.28"
       y1="-38.932083"
       x2="2769.0635"
       y2="-38.932083"
       gradientUnits="userSpaceOnUse" /><linearGradient
       xlink:href="#linearGradient388"
       id="linearGradient299"
       x1="2852.5244"
       y1="-6.654305"
       x2="2964.1133"
       y2="-6.654305"
       gradientUnits="userSpaceOnUse" /><linearGradient
       xlink:href="#linearGradient390"
       id="linearGradient300"
       x1="2902.7856"
       y1="-49.537643"
       x2="2964.5745"
       y2="-49.537643"
       gradientUnits="userSpaceOnUse" /><linearGradient
       xlink:href="#linearGradient392"
       id="linearGradient301"
       x1="3112.1301"
       y1="2.567915"
       x2="3127.3467"
       y2="2.567915"
       gradientUnits="userSpaceOnUse" /><linearGradient
       xlink:href="#linearGradient394"
       id="linearGradient302"
       x1="3179.9133"
       y1="-51.382092"
       x2="3204.3523"
       y2="-51.382092"
       gradientUnits="userSpaceOnUse" /><linearGradient
       xlink:href="#linearGradient289"
       id="linearGradient303"
       x1="3260.6079"
       y1="19.62903"
       x2="3380.958"
       y2="19.62903"
       gradientUnits="userSpaceOnUse" /><linearGradient
       xlink:href="#linearGradient289"
       id="linearGradient304"
       x1="3393.408"
       y1="-66.598755"
       x2="3455.658"
       y2="-66.598755"
       gradientUnits="userSpaceOnUse" /><linearGradient
       xlink:href="#linearGradient289"
       id="linearGradient305"
       x1="3509.1467"
       y1="-30.401529"
       x2="3684.8301"
       y2="-30.401529"
       gradientUnits="userSpaceOnUse" /><linearGradient
       xlink:href="#linearGradient289"
       id="linearGradient306"
       x1="3595.3745"
       y1="-35.473755"
       x2="3795.0356"
       y2="-35.473755"
       gradientUnits="userSpaceOnUse" /><linearGradient
       xlink:href="#linearGradient289"
       id="linearGradient307"
       x1="3705.5801"
       y1="-24.176529"
       x2="3996.0801"
       y2="-24.176529"
       gradientUnits="userSpaceOnUse" /><linearGradient
       xlink:href="#linearGradient289"
       id="linearGradient308"
       x1="3490.7024"
       y1="67.815147"
       x2="4086.458"
       y2="67.815147"
       gradientUnits="userSpaceOnUse" /><linearGradient
       xlink:href="#linearGradient289"
       id="linearGradient309"
       x1="3797.3413"
       y1="32.540142"
       x2="4071.2412"
       y2="32.540142"
       gradientUnits="userSpaceOnUse" /><linearGradient
       xlink:href="#linearGradient289"
       id="linearGradient310"
       x1="3851.7522"
       y1="126.60681"
       x2="4071.7024"
       y2="126.60681"
       gradientUnits="userSpaceOnUse" /><linearGradient
       xlink:href="#linearGradient289"
       id="linearGradient311"
       x1="3636.8745"
       y1="216.75404"
       x2="4074.0078"
       y2="216.75404"
       gradientUnits="userSpaceOnUse" /><linearGradient
       xlink:href="#linearGradient289"
       id="linearGradient312"
       x1="3702.8135"
       y1="213.75684"
       x2="4072.1636"
       y2="213.75684"
       gradientUnits="userSpaceOnUse" /><linearGradient
       xlink:href="#linearGradient289"
       id="linearGradient313"
       x1="3880.8025"
       y1="239.3485"
       x2="4073.5469"
       y2="239.3485"
       gradientUnits="userSpaceOnUse" /><linearGradient
       xlink:href="#linearGradient289"
       id="linearGradient314"
       x1="3995.158"
       y1="310.35962"
       x2="4074.0078"
       y2="310.35962"
       gradientUnits="userSpaceOnUse" /><linearGradient
       xlink:href="#linearGradient289"
       id="linearGradient315"
       x1="3669.1523"
       y1="366.84573"
       x2="4074.0078"
       y2="366.84573"
       gradientUnits="userSpaceOnUse" /><linearGradient
       xlink:href="#linearGradient289"
       id="linearGradient316"
       x1="3982.2468"
       y1="390.59296"
       x2="4073.5469"
       y2="390.59296"
       gradientUnits="userSpaceOnUse" /><linearGradient
       xlink:href="#linearGradient289"
       id="linearGradient317"
       x1="3762.2969"
       y1="475.66797"
       x2="4073.5469"
       y2="475.66797"
       gradientUnits="userSpaceOnUse" /><linearGradient
       xlink:href="#linearGradient289"
       id="linearGradient318"
       x1="3892.3301"
       y1="485.58185"
       x2="4074.0078"
       y2="485.58185"
       gradientUnits="userSpaceOnUse" /><linearGradient
       xlink:href="#linearGradient289"
       id="linearGradient319"
       x1="3721.2578"
       y1="497.10962"
       x2="4074.0078"
       y2="497.10962"
       gradientUnits="userSpaceOnUse" /><linearGradient
       xlink:href="#linearGradient289"
       id="linearGradient320"
       x1="3996.0801"
       y1="583.56793"
       x2="4075.8523"
       y2="583.56793"
       gradientUnits="userSpaceOnUse" /><linearGradient
       xlink:href="#linearGradient289"
       id="linearGradient321"
       x1="3942.1301"
       y1="610.54297"
       x2="4075.8523"
       y2="610.54297"
       gradientUnits="userSpaceOnUse" /><linearGradient
       xlink:href="#linearGradient289"
       id="linearGradient322"
       x1="3742.9302"
       y1="700.69019"
       x2="4072.6245"
       y2="700.69019"
       gradientUnits="userSpaceOnUse" /><linearGradient
       xlink:href="#linearGradient289"
       id="linearGradient323"
       x1="3474.5635"
       y1="851.01245"
       x2="4073.0857"
       y2="851.01245"
       gradientUnits="userSpaceOnUse" /><linearGradient
       xlink:href="#linearGradient289"
       id="linearGradient324"
       x1="3321.8464"
       y1="906.59546"
       x2="3649.8577"
       y2="906.59546"
       gradientUnits="userSpaceOnUse" /><linearGradient
       xlink:href="#linearGradient342"
       id="linearGradient325"
       x1="2942.3186"
       y1="944.0918"
       x2="3039.157"
       y2="944.0918"
       gradientUnits="userSpaceOnUse" /><linearGradient
       xlink:href="#linearGradient344"
       id="linearGradient326"
       x1="2585.2886"
       y1="952.08014"
       x2="2847.1106"
       y2="952.08014"
       gradientUnits="userSpaceOnUse" /><linearGradient
       xlink:href="#linearGradient346"
       id="linearGradient327"
       x1="2160.6272"
       y1="943.11938"
       x2="2491.0134"
       y2="943.11938"
       gradientUnits="userSpaceOnUse" /><linearGradient
       xlink:href="#linearGradient348"
       id="linearGradient328"
       x1="2163.3938"
       y1="824.72913"
       x2="2692.0579"
       y2="824.72913"
       gradientUnits="userSpaceOnUse" /><linearGradient
       xlink:href="#linearGradient350"
       id="linearGradient329"
       x1="2163.3938"
       y1="800.75128"
       x2="2491.7051"
       y2="800.75128"
       gradientUnits="userSpaceOnUse" /><linearGradient
       xlink:href="#linearGradient352"
       id="linearGradient330"
       x1="2162.9329"
       y1="758.21381"
       x2="2417.2356"
       y2="758.21381"
       gradientUnits="userSpaceOnUse" /><linearGradient
       xlink:href="#linearGradient354"
       id="linearGradient331"
       x1="2162.2412"
       y1="685.35822"
       x2="2521.9077"
       y2="685.35822"
       gradientUnits="userSpaceOnUse" /><linearGradient
       xlink:href="#linearGradient366"
       id="linearGradient332"
       x1="2162.0105"
       y1="647.43188"
       x2="2392.7966"
       y2="647.43188"
       gradientUnits="userSpaceOnUse" /><linearGradient
       xlink:href="#linearGradient356"
       id="linearGradient333"
       x1="2161.78"
       y1="619.99573"
       x2="2625.6577"
       y2="619.99573"
       gradientUnits="userSpaceOnUse" /><linearGradient
       xlink:href="#linearGradient358"
       id="linearGradient334"
       x1="2161.5493"
       y1="585.98877"
       x2="2316.0217"
       y2="585.98877"
       gradientUnits="userSpaceOnUse" /><linearGradient
       xlink:href="#linearGradient360"
       id="linearGradient335"
       x1="2161.3188"
       y1="555.67072"
       x2="2277.7495"
       y2="555.67072"
       gradientUnits="userSpaceOnUse" /><linearGradient
       xlink:href="#linearGradient362"
       id="linearGradient336"
       x1="2160.3967"
       y1="473.47766"
       x2="2244.78"
       y2="473.47766"
       gradientUnits="userSpaceOnUse" /><linearGradient
       xlink:href="#linearGradient364"
       id="linearGradient337"
       x1="2160.8579"
       y1="461.4888"
       x2="2482.9438"
       y2="461.4888"
       gradientUnits="userSpaceOnUse" /><linearGradient
       xlink:href="#linearGradient368"
       id="linearGradient338"
       x1="2160.166"
       y1="405.34851"
       x2="2331.469"
       y2="405.34851"
       gradientUnits="userSpaceOnUse" /><linearGradient
       xlink:href="#linearGradient340"
       id="linearGradient339"
       x1="2160.2483"
       y1="347.95984"
       x2="2615.9746"
       y2="347.95984"
       gradientUnits="userSpaceOnUse" /><linearGradient
       xlink:href="#linearGradient395"
       id="linearGradient396"
       x1="246.9978"
       y1="-152.38715"
       x2="2084.9624"
       y2="-152.38715"
       gradientUnits="userSpaceOnUse"
       gradientTransform="matrix(1.0046161,0,0,0.99999122,-1.1412807,-0.00133442)" /><linearGradient
       xlink:href="#linearGradient398"
       id="linearGradient399"
       x1="-1687.2551"
       y1="573.1059"
       x2="-1518.7925"
       y2="552.89044"
       gradientUnits="userSpaceOnUse" /><linearGradient
       xlink:href="#linearGradient398"
       id="linearGradient400"
       gradientUnits="userSpaceOnUse"
       x1="-1630.459"
       y1="-583.69507"
       x2="-1605.4303"
       y2="-522.08588" /></defs><g
     id="g1"><g
       id="g50"
       transform="matrix(1.0763468,0,0,0.63611725,-2329.68,239.17266)"><path
         style="fill:url(#linearGradient339);fill-opacity:1;stroke:none;stroke-width:1px;stroke-linecap:butt;stroke-linejoin:miter;stroke-opacity:1"
         d="m 2160.2482,295.67578 455.7263,104.5681 -455.7263,-88.2326 z"
         id="path1" /><path
         style="fill:url(#linearGradient338);fill-opacity:1;stroke:none;stroke-width:1px;stroke-linecap:butt;stroke-linejoin:miter;stroke-opacity:1"
         d="m 2160.3967,393.82072 171.0722,23.05556 -171.3028,-17.29167 z"
         id="path2" /><path
         style="fill:url(#linearGradient337);fill-opacity:1;stroke:none;stroke-width:1px;stroke-linecap:butt;stroke-linejoin:miter;stroke-opacity:1"
         d="m 2160.8578,450.07628 322.0861,22.82501 -322.0861,-13.37223 z"
         id="path3" /><path
         style="fill:url(#linearGradient336);fill-opacity:1;stroke:none;stroke-width:1px;stroke-linecap:butt;stroke-linejoin:miter;stroke-opacity:1"
         d="m 2160.3967,470.82629 84.3833,5.30277 -84.3833,-1.38333 z"
         id="path4" /><path
         style="fill:url(#linearGradient335);fill-opacity:1;stroke:none;stroke-width:1px;stroke-linecap:butt;stroke-linejoin:miter;stroke-opacity:1"
         d="m 2161.3189,555.20962 116.4305,-3.22777 -116.4305,7.37778 z"
         id="path5" /><path
         style="fill:url(#linearGradient334);fill-opacity:1;stroke:none;stroke-width:1px;stroke-linecap:butt;stroke-linejoin:miter;stroke-opacity:1"
         d="m 2161.5494,587.94852 154.4723,-9.45278 -154.4723,14.98611 z"
         id="path6" /><path
         style="fill:url(#linearGradient333);fill-opacity:1;stroke:none;stroke-width:1px;stroke-linecap:butt;stroke-linejoin:miter;stroke-opacity:1"
         d="M 2162.2411,642.12908 2625.6578,583.56796 2161.78,656.42352 Z"
         id="path7" /><path
         style="fill:url(#linearGradient332);fill-opacity:1;stroke:none;stroke-width:1px;stroke-linecap:butt;stroke-linejoin:miter;stroke-opacity:1"
         d="m 2162.0105,660.57352 230.7862,-33.2 -230.5556,40.11667 z"
         id="path8" /><path
         style="fill:url(#linearGradient331);fill-opacity:1;stroke:none;stroke-width:1px;stroke-linecap:butt;stroke-linejoin:miter;stroke-opacity:1"
         d="m 2162.2411,715.44575 359.6667,-72.1639 -359.6667,84.15279 z"
         id="path9" /><path
         style="fill:url(#linearGradient330);fill-opacity:1;stroke:none;stroke-width:1px;stroke-linecap:butt;stroke-linejoin:miter;stroke-opacity:1"
         d="m 2162.9328,788.99298 254.3027,-69.62779 -254.0722,77.69723 z"
         id="path10" /><path
         style="fill:url(#linearGradient329);fill-opacity:1;stroke:none;stroke-width:1px;stroke-linecap:butt;stroke-linejoin:miter;stroke-opacity:1"
         d="M 2163.3939,848.24576 2491.705,738.96241 2163.855,862.5402 Z"
         id="path11" /><path
         style="fill:url(#linearGradient328);fill-opacity:1;stroke:none;stroke-width:1px;stroke-linecap:butt;stroke-linejoin:miter;stroke-opacity:1"
         d="M 2163.6244,929.17072 2692.0578,705.99297 2163.3939,943.46522 Z"
         id="path12" /><path
         style="fill:url(#linearGradient327);fill-opacity:1;stroke:none;stroke-width:1px;stroke-linecap:butt;stroke-linejoin:miter;stroke-opacity:1"
         d="M 2160.6272,1020.0097 2491.0134,851.01242 2161.0883,1035.2264 Z"
         id="path13" /><path
         style="fill:url(#linearGradient326);fill-opacity:1;stroke:none;stroke-width:1px;stroke-linecap:butt;stroke-linejoin:miter;stroke-opacity:1"
         d="m 2847.1107,816.44126 -484.2195,490.33394 30.211,12.3388 z"
         id="path14"
         sodipodi:nodetypes="cccc" /><path
         style="fill:url(#linearGradient325);fill-opacity:1;stroke:none;stroke-width:1px;stroke-linecap:butt;stroke-linejoin:miter;stroke-opacity:1"
         d="m 3039.1569,801.7688 -96.8382,284.646 21.5196,-0.3261 z"
         id="path15" /><path
         style="fill:url(#linearGradient324);fill-opacity:1;stroke:none;stroke-width:1px;stroke-linecap:butt;stroke-linejoin:miter;stroke-opacity:1"
         d="m 3321.8465,726.12408 306.8176,360.61672 21.1935,0.326 z"
         id="path16" /><path
         style="fill:url(#linearGradient323);fill-opacity:1;stroke:none;stroke-width:1px;stroke-linecap:butt;stroke-linejoin:miter;stroke-opacity:1"
         d="m 3474.5634,687.54852 598.5223,326.92788 v -21.21115 z"
         id="path17" /><path
         style="fill:url(#linearGradient322);fill-opacity:1;stroke:none;stroke-width:1px;stroke-linecap:butt;stroke-linejoin:miter;stroke-opacity:1"
         d="m 3742.9301,657.11519 329.6945,87.15 -0.4611,-16.13889 z"
         id="path18" /><path
         style="fill:url(#linearGradient321);fill-opacity:1;stroke:none;stroke-width:1px;stroke-linecap:butt;stroke-linejoin:miter;stroke-opacity:1"
         d="m 3942.1301,602.24296 133.2612,16.6 0.4611,-5.07222 z"
         id="path19" /><path
         style="fill:url(#linearGradient320);fill-opacity:1;stroke:none;stroke-width:1px;stroke-linecap:butt;stroke-linejoin:miter;stroke-opacity:1"
         d="m 3996.0801,579.1874 79.7723,8.76112 -0.4611,-3.22778 z"
         id="path20" /><path
         style="fill:url(#linearGradient319);fill-opacity:1;stroke:none;stroke-width:1px;stroke-linecap:butt;stroke-linejoin:miter;stroke-opacity:1"
         d="m 3721.2579,501.72073 352.2889,0.46111 0.4611,-10.14444 z"
         id="path21" /><path
         style="fill:url(#linearGradient318);fill-opacity:1;stroke:none;stroke-width:1px;stroke-linecap:butt;stroke-linejoin:miter;stroke-opacity:1"
         d="m 3892.3301,489.73184 181.6778,-2.30555 v -5.99445 z"
         id="path22" /><path
         style="fill:url(#linearGradient317);fill-opacity:1;stroke:none;stroke-width:1px;stroke-linecap:butt;stroke-linejoin:miter;stroke-opacity:1"
         d="m 3762.2968,484.19851 311.25,-6.91667 V 467.1374 Z"
         id="path23" /><path
         style="fill:url(#linearGradient316);fill-opacity:1;stroke:none;stroke-width:1px;stroke-linecap:butt;stroke-linejoin:miter;stroke-opacity:1"
         d="m 3982.2468,398.43184 90.8389,-11.52778 0.4611,-4.15 z"
         id="path24" /><path
         style="fill:url(#linearGradient315);fill-opacity:1;stroke:none;stroke-width:1px;stroke-linecap:butt;stroke-linejoin:miter;stroke-opacity:1"
         d="m 3669.1523,408.57628 404.8556,-70.55 -0.4611,-12.91112 z"
         id="path25" /><path
         style="fill:url(#linearGradient314);fill-opacity:1;stroke:none;stroke-width:1px;stroke-linecap:butt;stroke-linejoin:miter;stroke-opacity:1"
         d="m 3995.1579,320.96516 3.2278,-0.92222 75.1611,-15.67778 0.4611,-4.61111 z"
         id="path26" /><path
         style="fill:url(#linearGradient313);fill-opacity:1;stroke:none;stroke-width:1px;stroke-linecap:butt;stroke-linejoin:miter;stroke-opacity:1"
         d="m 3880.8024,272.08738 192.7444,-57.63889 v -7.83889 z"
         id="path27" /><path
         style="fill:url(#linearGradient312);fill-opacity:1;stroke:none;stroke-width:1px;stroke-linecap:butt;stroke-linejoin:miter;stroke-opacity:1"
         d="m 3702.8134,290.53183 369.3501,-139.71668 -0.9222,-13.83333 z"
         id="path28" /><path
         style="fill:url(#linearGradient311);fill-opacity:1;stroke:none;stroke-width:1px;stroke-linecap:butt;stroke-linejoin:miter;stroke-opacity:1"
         d="m 3636.8746,309.8985 437.1333,-169.68891 v -16.6 z"
         id="path29" /><path
         style="fill:url(#linearGradient310);fill-opacity:1;stroke:none;stroke-width:1px;stroke-linecap:butt;stroke-linejoin:miter;stroke-opacity:1"
         d="M 3851.7523,180.32626 4071.7024,84.415153 V 72.88737 Z"
         id="path30" /><path
         style="fill:url(#linearGradient309);fill-opacity:1;stroke:none;stroke-width:1px;stroke-linecap:butt;stroke-linejoin:miter;stroke-opacity:1"
         d="m 3797.3412,117.61515 273.9001,-154.472236 -0.4612,-15.677779 z"
         id="path31" /><path
         style="fill:url(#linearGradient308);fill-opacity:1;stroke:none;stroke-width:1px;stroke-linecap:butt;stroke-linejoin:miter;stroke-opacity:1"
         d="m 3490.7023,266.09294 595.7556,-396.55559 -2.369,-32.6202 z"
         id="path32"
         sodipodi:nodetypes="cccc" /><path
         style="fill:url(#linearGradient307);fill-opacity:1;stroke:none;stroke-width:1px;stroke-linecap:butt;stroke-linejoin:miter;stroke-opacity:1"
         d="m 3705.5801,80.726263 371.9997,-264.852183 -5.5591,-24.46515 z"
         id="path33"
         sodipodi:nodetypes="cccc" /><path
         style="fill:url(#linearGradient306);fill-opacity:1;stroke:none;stroke-width:1px;stroke-linecap:butt;stroke-linejoin:miter;stroke-opacity:1"
         d="m 3595.3746,57.6707 1.3833,-2.76667 288.5029,-307.88677 11.9948,24.46515 z"
         id="path34"
         sodipodi:nodetypes="ccccc" /><path
         style="fill:url(#linearGradient305);fill-opacity:1;stroke:none;stroke-width:1px;stroke-linecap:butt;stroke-linejoin:miter;stroke-opacity:1"
         d="m 3509.1468,66.43181 226.7714,-281.33348 24.8862,0.46111 z"
         id="path35"
         sodipodi:nodetypes="cccc" /><path
         style="fill:url(#linearGradient304);fill-opacity:1;stroke:none;stroke-width:1px;stroke-linecap:butt;stroke-linejoin:miter;stroke-opacity:1"
         d="m 3393.4079,-6.8848599 0.4611,-3.2277791 54.8722,-116.200011 h 6.9167 z"
         id="path36" /><path
         style="fill:url(#linearGradient303);fill-opacity:1;stroke:none;stroke-width:1px;stroke-linecap:butt;stroke-linejoin:miter;stroke-opacity:1"
         d="m 3260.6079,166.49293 99.1389,-293.7278 h 21.2111 z"
         id="path37" /><path
         style="fill:url(#linearGradient302);fill-opacity:1;stroke:none;stroke-width:1px;stroke-linecap:butt;stroke-linejoin:miter;stroke-opacity:1"
         d="m 3179.9134,23.08736 0.4611,-3.68889 13.8334,-145.25001 h 10.1444 z"
         id="path38" /><path
         style="fill:url(#linearGradient301);fill-opacity:1;stroke:none;stroke-width:1px;stroke-linecap:butt;stroke-linejoin:miter;stroke-opacity:1"
         d="m 3123.6578,133.75404 -11.5277,-262.37225 15.2166,0.46111 z"
         id="path39" /><path
         style="fill:url(#linearGradient300);fill-opacity:1;stroke:none;stroke-width:1px;stroke-linecap:butt;stroke-linejoin:miter;stroke-opacity:1"
         d="m 2964.5745,29.08181 -61.7889,-156.7778 8.7611,-0.46111 z"
         id="path40" /><path
         style="fill:url(#linearGradient299);fill-opacity:1;stroke:none;stroke-width:1px;stroke-linecap:butt;stroke-linejoin:miter;stroke-opacity:1"
         d="m 2964.1134,113.46515 -111.5889,-238.85558 15.2166,-1.38333 z"
         id="path41" /><path
         style="fill:url(#linearGradient298);fill-opacity:1;stroke:none;stroke-width:1px;stroke-linecap:butt;stroke-linejoin:miter;stroke-opacity:1"
         d="m 2769.0634,52.59848 -150.7834,-182.60002 16.1389,-0.46111 z"
         id="path42" /><path
         style="fill:url(#linearGradient297);fill-opacity:1;stroke:none;stroke-width:1px;stroke-linecap:butt;stroke-linejoin:miter;stroke-opacity:1"
         d="m 2823.0134,177.5596 -292.3445,-302.48892 25.3611,-2.30555 z"
         id="path43" /><path
         style="fill:url(#linearGradient296);fill-opacity:1;stroke:none;stroke-width:1px;stroke-linecap:butt;stroke-linejoin:miter;stroke-opacity:1"
         d="m 2687.9078,135.13737 -322.3167,-265.13891 30.8945,0.46111 z"
         id="path44" /><path
         style="fill:url(#linearGradient295);fill-opacity:1;stroke:none;stroke-width:1px;stroke-linecap:butt;stroke-linejoin:miter;stroke-opacity:1"
         d="m 2517.7578,100.09292 v 0 l -342.1445,-226.86668 21.2111,-0.92223 z"
         id="path45" /><path
         style="fill:url(#linearGradient294);fill-opacity:1;stroke:none;stroke-width:1px;stroke-linecap:butt;stroke-linejoin:miter;stroke-opacity:1"
         d="M 2587.8467,189.08738 2159.0133,-52.073754 v -20.750001 z"
         id="path46" /><path
         style="fill:url(#linearGradient293);fill-opacity:1;stroke:none;stroke-width:1px;stroke-linecap:butt;stroke-linejoin:miter;stroke-opacity:1"
         d="m 2710.9634,274.85405 -550.5667,-296.033357 -1.3834,-27.205558 z"
         id="path47" /><path
         style="fill:url(#linearGradient292);fill-opacity:1;stroke:none;stroke-width:1px;stroke-linecap:butt;stroke-linejoin:miter;stroke-opacity:1"
         d="m 2502.5411,213.06515 -5.5333,-2.30555 -337.9945,-155.39446 0.9222,-11.98888 z"
         id="path48" /><path
         style="fill:url(#linearGradient291);fill-opacity:1;stroke:none;stroke-width:1px;stroke-linecap:butt;stroke-linejoin:miter;stroke-opacity:1"
         d="m 2574.4745,298.83183 -417.7667,-151.24446 2.3055,-16.13889 z"
         id="path49" /><path
         style="fill:url(#linearGradient290);fill-opacity:1;stroke:none;stroke-width:1px;stroke-linecap:butt;stroke-linejoin:miter;stroke-opacity:1"
         d="m 2319.48,243.9596 -162.3111,-50.72222 v -6.45556 z"
         id="path50" /></g><g
       id="g396"
       transform="matrix(1.1267569,0,0,1.3785267,-295.39843,392.65656)"><path
         style="fill:url(#linearGradient396);stroke:#000000;stroke-width:1.00741px;stroke-linecap:butt;stroke-linejoin:miter;stroke-opacity:1"
         d="M 2092.9405,-238.21613 249.10597,-49.564146 247.50984,-302.03163 2092.9405,-293.5229 Z"
         id="path394" /><path
         style="fill:#000000;fill-opacity:1;stroke:#000000;stroke-width:1.0051px;stroke-linecap:butt;stroke-linejoin:miter;stroke-opacity:1"
         d="M 2097.7885,-215.52672 249.20794,-29.051183 247.99625,-57.413883 2099.0002,-245.30756 Z"
         id="path396" /></g><g
       id="g398"
       transform="translate(1773.2668,-519.37781)"><circle
         style="fill:#000000;fill-opacity:1;stroke:none;stroke-width:0.0510034"
         id="path397-1"
         cx="-1624"
         cy="553.33337"
         r="11" /><circle
         style="fill:#000000;fill-opacity:1;stroke:none;stroke-width:0.0440484"
         id="path397-3"
         cx="-1671.5"
         cy="553.33337"
         r="9.5" /><circle
         style="fill:#000000;fill-opacity:1;stroke:none;stroke-width:0.0370932"
         id="path397-3-6"
         cx="-1696"
         cy="553.33337"
         r="8" /><circle
         style="fill:#000000;fill-opacity:1;stroke:none;stroke-width:0.0278203"
         id="path397-3-6-2"
         cx="-1721"
         cy="553.33337"
         r="6" /><circle
         style="fill:#000000;fill-opacity:1;stroke:none;stroke-width:0.0185469"
         id="path397-3-6-2-5"
         cx="-1746"
         cy="553.33337"
         r="4" /><circle
         style="fill:#000000;fill-opacity:1;stroke:none;stroke-width:0.00695509"
         id="path397-3-6-2-5-9"
         cx="-1771.5"
         cy="553.33337"
         r="1.5" /><circle
         style="fill:#000000;fill-opacity:1;stroke:none;stroke-width:0.0486851"
         id="path397"
         cx="-1647.4995"
         cy="553.33337"
         r="10.5" /><circle
         style="fill:#000000;fill-opacity:1;stroke:#000000;stroke-width:0.0440484;stroke-opacity:1"
         id="path397-3-4"
         cx="1576.4996"
         cy="553.33191"
         r="9.5"
         transform="scale(-1,1)" /><circle
         style="fill:#000000;fill-opacity:1;stroke:#000000;stroke-width:0.0370932;stroke-opacity:1"
         id="path397-3-6-7"
         cx="1551.9996"
         cy="553.33191"
         r="8"
         transform="scale(-1,1)" /><circle
         style="fill:#000000;fill-opacity:1;stroke:#000000;stroke-width:0.0278203;stroke-opacity:1"
         id="path397-3-6-2-6"
         cx="1526.9996"
         cy="553.33191"
         r="6"
         transform="scale(-1,1)" /><circle
         style="fill:#000000;fill-opacity:1;stroke:#000000;stroke-width:0.0185469;stroke-opacity:1"
         id="path397-3-6-2-5-5"
         cx="1501.9996"
         cy="553.33191"
         r="4"
         transform="scale(-1,1)" /><circle
         style="fill:#000000;fill-opacity:1;stroke:#000000;stroke-width:0.00695509;stroke-opacity:1"
         id="path397-3-6-2-5-9-6"
         cx="1476.4996"
         cy="553.33191"
         r="1.5"
         transform="scale(-1,1)" /><circle
         style="fill:#000000;fill-opacity:1;stroke:#000000;stroke-width:0.0486851;stroke-opacity:1"
         id="path397-9"
         cx="1600.5001"
         cy="553.33191"
         r="10.5"
         transform="scale(-1,1)" /><circle
         style="fill:#000000;fill-opacity:1;stroke:none;stroke-width:0.0440484"
         id="path397-3-5"
         cx="-1660.2759"
         cy="573.69244"
         r="9.5" /><circle
         style="fill:#000000;fill-opacity:1;stroke:none;stroke-width:0.0370932"
         id="path397-3-6-4"
         cx="-1684.7759"
         cy="573.69244"
         r="8" /><circle
         style="fill:#000000;fill-opacity:1;stroke:none;stroke-width:0.0278203"
         id="path397-3-6-2-7"
         cx="-1709.7759"
         cy="573.69244"
         r="6" /><circle
         style="fill:#000000;fill-opacity:1;stroke:none;stroke-width:0.0185469"
         id="path397-3-6-2-5-4"
         cx="-1734.7759"
         cy="573.69244"
         r="4" /><circle
         style="fill:#000000;fill-opacity:1;stroke:none;stroke-width:0.00695509"
         id="path397-3-6-2-5-9-4"
         cx="-1760.2759"
         cy="573.69244"
         r="1.5" /><circle
         style="fill:#000000;fill-opacity:1;stroke:none;stroke-width:0.0486851"
         id="path397-30"
         cx="-1636.2754"
         cy="573.69244"
         r="10.5" /><circle
         style="fill:#000000;fill-opacity:1;stroke:#000000;stroke-width:0.0440484;stroke-opacity:1"
         id="path397-3-4-7"
         cx="1588.1553"
         cy="573.69244"
         r="9.5"
         transform="scale(-1,1)" /><circle
         style="fill:#000000;fill-opacity:1;stroke:#000000;stroke-width:0.0370932;stroke-opacity:1"
         id="path397-3-6-7-8"
         cx="1563.6553"
         cy="573.69244"
         r="8"
         transform="scale(-1,1)" /><circle
         style="fill:#000000;fill-opacity:1;stroke:#000000;stroke-width:0.0278203;stroke-opacity:1"
         id="path397-3-6-2-6-6"
         cx="1538.6553"
         cy="573.69244"
         r="6"
         transform="scale(-1,1)" /><circle
         style="fill:#000000;fill-opacity:1;stroke:#000000;stroke-width:0.0185469;stroke-opacity:1"
         id="path397-3-6-2-5-5-8"
         cx="1513.6553"
         cy="573.69244"
         r="4"
         transform="scale(-1,1)" /><circle
         style="fill:#000000;fill-opacity:1;stroke:#000000;stroke-width:0.00695509;stroke-opacity:1"
         id="path397-3-6-2-5-9-6-8"
         cx="1488.1553"
         cy="573.69244"
         r="1.5"
         transform="scale(-1,1)" /><circle
         style="fill:#000000;fill-opacity:1;stroke:#000000;stroke-width:0.0486851;stroke-opacity:1"
         id="path397-9-4"
         cx="1612.1558"
         cy="573.69244"
         r="10.5"
         transform="scale(-1,1)" /><circle
         style="fill:#000000;fill-opacity:1;stroke:none;stroke-width:0.0440484"
         id="path397-3-5-0"
         cx="1587.7174"
         cy="-532.98578"
         r="9.5"
         transform="scale(-1)" /><circle
         style="fill:#000000;fill-opacity:1;stroke:none;stroke-width:0.0370932"
         id="path397-3-6-4-6"
         cx="1563.2174"
         cy="-532.98578"
         r="8"
         transform="scale(-1)" /><circle
         style="fill:#000000;fill-opacity:1;stroke:none;stroke-width:0.0278203"
         id="path397-3-6-2-7-8"
         cx="1538.2174"
         cy="-532.98578"
         r="6"
         transform="scale(-1)" /><circle
         style="fill:#000000;fill-opacity:1;stroke:none;stroke-width:0.0185469"
         id="path397-3-6-2-5-4-9"
         cx="1513.2174"
         cy="-532.98578"
         r="4"
         transform="scale(-1)" /><circle
         style="fill:#000000;fill-opacity:1;stroke:none;stroke-width:0.00695509"
         id="path397-3-6-2-5-9-4-2"
         cx="1487.7174"
         cy="-532.98578"
         r="1.5"
         transform="scale(-1)" /><circle
         style="fill:#000000;fill-opacity:1;stroke:none;stroke-width:0.0486851"
         id="path397-30-6"
         cx="1611.7179"
         cy="-532.98578"
         r="10.5"
         transform="scale(-1)" /><circle
         style="fill:#000000;fill-opacity:1;stroke:#000000;stroke-width:0.0440484;stroke-opacity:1"
         id="path397-3-4-7-6"
         cx="-1659.838"
         cy="-532.98578"
         r="9.5"
         transform="scale(1,-1)" /><circle
         style="fill:#000000;fill-opacity:1;stroke:#000000;stroke-width:0.0370932;stroke-opacity:1"
         id="path397-3-6-7-8-4"
         cx="-1684.338"
         cy="-532.98578"
         r="8"
         transform="scale(1,-1)" /><circle
         style="fill:#000000;fill-opacity:1;stroke:#000000;stroke-width:0.0278203;stroke-opacity:1"
         id="path397-3-6-2-6-6-9"
         cx="-1709.338"
         cy="-532.98578"
         r="6"
         transform="scale(1,-1)" /><circle
         style="fill:#000000;fill-opacity:1;stroke:#000000;stroke-width:0.0185469;stroke-opacity:1"
         id="path397-3-6-2-5-5-8-5"
         cx="-1734.338"
         cy="-532.98578"
         r="4"
         transform="scale(1,-1)" /><circle
         style="fill:#000000;fill-opacity:1;stroke:#000000;stroke-width:0.00695509;stroke-opacity:1"
         id="path397-3-6-2-5-9-6-8-0"
         cx="-1759.838"
         cy="-532.98578"
         r="1.5"
         transform="scale(1,-1)" /><circle
         style="fill:#000000;fill-opacity:1;stroke:#000000;stroke-width:0.0486851;stroke-opacity:1"
         id="path397-9-4-4"
         cx="-1635.8375"
         cy="-532.98578"
         r="10.5"
         transform="scale(1,-1)" /></g><g
       id="g53"
       transform="matrix(1.0679828,0,0,0.64070639,2144.3824,329.95253)"><path
         style="display:inline;fill:url(#linearGradient52);stroke:#000000;stroke-width:1.10064px;stroke-linecap:butt;stroke-linejoin:miter;stroke-opacity:1"
         d="M -2015.3074,1055.1158 -78.000816,519.97703 -83.181468,832.57379 -2016.2855,1321.1912 Z"
         id="path51" /><path
         style="fill:#000000;fill-opacity:1;stroke:#000000;stroke-width:1.09043px;stroke-linecap:butt;stroke-linejoin:miter;stroke-opacity:1"
         d="M -2019.5367,1037.407 -57.324486,503.92467 v 16.28371 L -2033.8825,1058.3431 Z"
         id="path53" /><path
         style="fill:#000000;fill-opacity:1;stroke:#000000;stroke-width:1.43952px;stroke-linecap:butt;stroke-linejoin:miter;stroke-opacity:1"
         d="M -2025.5938,1312.8652 -64.251338,819.21392 -68.927332,1415.2307 -2024.3715,1441.1878 Z"
         id="path54" /></g><g
       id="g398-2"
       transform="matrix(3.7192134,0,0,3.7192134,7525.2035,-1125.7648)"
       style="fill:url(#linearGradient399);fill-opacity:1;stroke:none;stroke-width:0.999989;stroke-dasharray:none;stroke-opacity:1"><path
         id="path397-9-4-4-0"
         style="fill:url(#linearGradient400);fill-opacity:1;stroke:none;stroke-width:3.60956;stroke-linecap:butt;stroke-dasharray:none;stroke-dashoffset:0;stroke-opacity:1"
         transform="scale(1,-1)"
         d="m -1625.3375,-532.98578 a 10.5,10.5 0 0 1 -10.5,10.5 10.5,10.5 0 0 1 -10.5,-10.5 10.5,10.5 0 0 1 10.5,-10.5 10.5,10.5 0 0 1 10.5,10.5 z m -133.0005,0 a 1.5,1.5 0 0 1 -1.5,1.5 1.5,1.5 0 0 1 -1.5,-1.5 1.5,1.5 0 0 1 1.5,-1.5 1.5,1.5 0 0 1 1.5,1.5 z m 28,0 a 4,4 0 0 1 -4,4 4,4 0 0 1 -4,-4 4,4 0 0 1 4,-4 4,4 0 0 1 4,4 z m 27,0 a 6,6 0 0 1 -6,6 6,6 0 0 1 -6,-6 6,6 0 0 1 6,-6 6,6 0 0 1 6,6 z m 27,0 a 8,8 0 0 1 -8,8 8,8 0 0 1 -8,-8 8,8 0 0 1 8,-8 8,8 0 0 1 8,8 z m 26,0 a 9.5,9.5 0 0 1 -9.5,9.5 9.5,9.5 0 0 1 -9.5,-9.5 9.5,9.5 0 0 1 9.5,-9.5 9.5,9.5 0 0 1 9.5,9.5 z m 28.1201,0 a 10.5,10.5 0 0 0 10.5,10.5 10.5,10.5 0 0 0 10.5,-10.5 10.5,10.5 0 0 0 -10.5,-10.5 10.5,10.5 0 0 0 -10.5,10.5 z m 133.0005,0 a 1.5,1.5 0 0 0 1.5,1.5 1.5,1.5 0 0 0 1.5,-1.5 1.5,1.5 0 0 0 -1.5,-1.5 1.5,1.5 0 0 0 -1.5,1.5 z m -28,0 a 4,4 0 0 0 4,4 4,4 0 0 0 4,-4 4,4 0 0 0 -4,-4 4,4 0 0 0 -4,4 z m -27,0 a 6,6 0 0 0 6,6 6,6 0 0 0 6,-6 6,6 0 0 0 -6,-6 6,6 0 0 0 -6,6 z m -27,0 a 8,8 0 0 0 8,8 8,8 0 0 0 8,-8 8,8 0 0 0 -8,-8 8,8 0 0 0 -8,8 z m -26,0 a 9.5,9.5 0 0 0 9.5,9.5 9.5,9.5 0 0 0 9.5,-9.5 9.5,9.5 0 0 0 -9.5,-9.5 9.5,9.5 0 0 0 -9.5,9.5 z m -25.4384,-40.70666 a 10.5,10.5 0 0 1 10.5,-10.5 10.5,10.5 0 0 1 10.5,10.5 10.5,10.5 0 0 1 -10.5,10.5 10.5,10.5 0 0 1 -10.5,-10.5 z m 133.0005,0 a 1.5,1.5 0 0 1 1.5,-1.5 1.5,1.5 0 0 1 1.5,1.5 1.5,1.5 0 0 1 -1.5,1.5 1.5,1.5 0 0 1 -1.5,-1.5 z m -28,0 a 4,4 0 0 1 4,-4 4,4 0 0 1 4,4 4,4 0 0 1 -4,4 4,4 0 0 1 -4,-4 z m -27,0 a 6,6 0 0 1 6,-6 6,6 0 0 1 6,6 6,6 0 0 1 -6,6 6,6 0 0 1 -6,-6 z m -27,0 a 8,8 0 0 1 8,-8 8,8 0 0 1 8,8 8,8 0 0 1 -8,8 8,8 0 0 1 -8,-8 z m -26,0 a 9.5,9.5 0 0 1 9.5,-9.5 9.5,9.5 0 0 1 9.5,9.5 9.5,9.5 0 0 1 -9.5,9.5 9.5,9.5 0 0 1 -9.5,-9.5 z m -28.1201,0 a 10.5,10.5 0 0 0 -10.5,-10.5 10.5,10.5 0 0 0 -10.5,10.5 10.5,10.5 0 0 0 10.5,10.5 10.5,10.5 0 0 0 10.5,-10.5 z m -133.0005,0 a 1.5,1.5 0 0 0 -1.5,-1.5 1.5,1.5 0 0 0 -1.5,1.5 1.5,1.5 0 0 0 1.5,1.5 1.5,1.5 0 0 0 1.5,-1.5 z m 28,0 a 4,4 0 0 0 -4,-4 4,4 0 0 0 -4,4 4,4 0 0 0 4,4 4,4 0 0 0 4,-4 z m 27,0 a 6,6 0 0 0 -6,-6 6,6 0 0 0 -6,6 6,6 0 0 0 6,6 6,6 0 0 0 6,-6 z m 27,0 a 8,8 0 0 0 -8,-8 8,8 0 0 0 -8,8 8,8 0 0 0 8,8 8,8 0 0 0 8,-8 z m 26,0 a 9.5,9.5 0 0 0 -9.5,-9.5 9.5,9.5 0 0 0 -9.5,9.5 9.5,9.5 0 0 0 9.5,9.5 9.5,9.5 0 0 0 9.5,-9.5 z m 39.7758,20.36053 a 10.5,10.5 0 0 1 10.5,-10.5 10.5,10.5 0 0 1 10.5,10.5 10.5,10.5 0 0 1 -10.5,10.5 10.5,10.5 0 0 1 -10.5,-10.5 z m 133.0005,0 a 1.5,1.5 0 0 1 1.5,-1.5 1.5,1.5 0 0 1 1.5,1.5 1.5,1.5 0 0 1 -1.5,1.5 1.5,1.5 0 0 1 -1.5,-1.5 z m -28,0 a 4,4 0 0 1 4,-4 4,4 0 0 1 4,4 4,4 0 0 1 -4,4 4,4 0 0 1 -4,-4 z m -27,0 a 6,6 0 0 1 6,-6 6,6 0 0 1 6,6 6,6 0 0 1 -6,6 6,6 0 0 1 -6,-6 z m -27,0 a 8,8 0 0 1 8,-8 8,8 0 0 1 8,8 8,8 0 0 1 -8,8 8,8 0 0 1 -8,-8 z m -26,0 a 9.5,9.5 0 0 1 9.5,-9.5 9.5,9.5 0 0 1 9.5,9.5 9.5,9.5 0 0 1 -9.5,9.5 9.5,9.5 0 0 1 -9.5,-9.5 z m -50.9999,-10e-4 a 10.5,10.5 0 0 0 -10.5,-10.5 10.5,10.5 0 0 0 -10.5,10.5 10.5,10.5 0 0 0 10.5,10.5 10.5,10.5 0 0 0 10.5,-10.5 z m -133.0005,0 a 1.5,1.5 0 0 0 -1.5,-1.5 1.5,1.5 0 0 0 -1.5,1.5 1.5,1.5 0 0 0 1.5,1.5 1.5,1.5 0 0 0 1.5,-1.5 z m 28,0 a 4,4 0 0 0 -4,-4 4,4 0 0 0 -4,4 4,4 0 0 0 4,4 4,4 0 0 0 4,-4 z m 27,0 a 6,6 0 0 0 -6,-6 6,6 0 0 0 -6,6 6,6 0 0 0 6,6 6,6 0 0 0 6,-6 z m 27,0 a 8,8 0 0 0 -8,-8 8,8 0 0 0 -8,8 8,8 0 0 0 8,8 8,8 0 0 0 8,-8 z m 26,0 a 9.5,9.5 0 0 0 -9.5,-9.5 9.5,9.5 0 0 0 -9.5,9.5 9.5,9.5 0 0 0 9.5,9.5 9.5,9.5 0 0 0 9.5,-9.5 z m 49,0 a 11,11 0 0 0 -11,-11 11,11 0 0 0 -11,11 11,11 0 0 0 11,11 11,11 0 0 0 11,-11 z" /></g></g></svg>
