<?xml version="1.0" encoding="UTF-8"?>
<!-- Created with Inkscape (http://www.inkscape.org/) -->
<svg width="10mm" height="10mm" version="1.1" viewBox="0 0 70.166 47.034" xmlns="http://www.w3.org/2000/svg" xmlns:xlink="http://www.w3.org/1999/xlink">
 <defs>
  <linearGradient id="daynightLinearGradient" x1="97.849" x2="97.839" y1="67.123" y2="123.18" gradientUnits="userSpaceOnUse">
   <stop style="stop-color:#15c5fe" offset="0"/>
   <stop style="stop-color:#a100fa" offset="1"/>
  </linearGradient>
  <linearGradient id="daynightLinearGradient5" x1="351.18" x2="351.18" y1="-62.759" y2="449.86" gradientTransform="translate(-96.059,62.479)" gradientUnits="userSpaceOnUse" xlink:href="#daynightLinearGradient"/>
  <linearGradient id="daynightLinearGradient7" x1="97.849" x2="97.839" y1="67.123" y2="123.18" gradientUnits="userSpaceOnUse" xlink:href="#daynightLinearGradient"/>
 </defs>
 <g transform="matrix(.13704 0 0 .13704 0 -11.566)">
  <g style="fill:url(#daynightLinearGradient7)">
   <path d="m256 73-106-73 106 73-106-73-23 127-127 23 73 106-73 106 127 23 23 127 106-73 106 73 23-127 127-23-73-106 73-106-127-23-23-127zm-144 183q0-39 19-72t53-53q34-19 72-19t72 19q34 20 53 53t19 72-19 72-53 53q-34 19-72 19t-72-19q-34-20-53-53t-19-72zm213 66q-39-1-65-27-25-25-26-64 0-28 15-50 14-22 39-32-15-5-32-5-48 1-79 33-32 31-33 79 1 48 33 79 31 32 79 33 29 0 53-14 25-13 40-35-12 3-24 3z" style="fill:url(#daynightLinearGradient5);stroke-width:.565"/>
  </g>
 </g>
</svg>
