<?xml version="1.0" encoding="UTF-8"?>
<!-- Created with Inkscape (http://www.inkscape.org/) -->
<svg width="10mm" height="10mm" version="1.1" viewBox="0 0 118.58 79.487" xmlns="http://www.w3.org/2000/svg" xmlns:xlink="http://www.w3.org/1999/xlink">
 <defs>
  <linearGradient id="githubLinearGradient8">
   <stop style="stop-color:#15c5fe" offset="0"/>
   <stop style="stop-color:#a100fa" offset="1"/>
  </linearGradient>
  <linearGradient id="githubLinearGradient9" x1="158.25" x2="-661.72" y1="212.79" y2="209.97" gradientUnits="userSpaceOnUse" xlink:href="#githubLinearGradient8"/>
  <linearGradient id="githubLinearGradient11" x1="296.96" x2="294.62" y1="107.91" y2="412.67" gradientTransform="matrix(3.6308 0 0 3.6308 -914.65 -711.91)" gradientUnits="userSpaceOnUse" xlink:href="#githubLinearGradient8"/>
 </defs>
 <g transform="matrix(.14345 0 0 .14345 28.759 4.4218)" style="fill:#a100fa">
  <path d="m99.59 449.88q-1.381 5.5241-6.9051 5.5241-8.2861 0-8.2861-5.5241 1.381-4.1431 6.9051-4.1431 6.9051 0 8.2861 4.1431zm-42.812-5.5241q-1.381 4.143 5.5241 6.9051 6.9051 1.381 8.2861-2.762 1.381-5.5241-5.5241-6.9051-6.9051-1.381-8.2861 2.762zm60.765-2.762q-6.9051 1.381-6.9051 6.9051 1.381 4.143 8.2861 4.143 6.9051-2.762 6.9051-6.9051-1.381-4.143-8.2861-4.143zm91.147-528.93q-147.77 2.762-241.68 96.671-93.909 93.909-96.671 240.3 1.381 117.39 64.908 205.77 63.527 88.385 169.87 124.29 24.858 1.381 23.477-16.572 0-5.5241 0-20.715 0-31.763 0-63.527-2.762 0-26.239 2.762-24.858 1.381-52.479-5.5241-27.62-8.2861-38.668-38.668 0-2.762-11.048-22.096-11.048-17.953-27.62-29.001-2.762-1.381-11.048-11.048-9.6671-8.2861 13.81-9.6671 1.381-1.381 19.334 5.5241 17.953 5.5241 33.144 30.382 24.858 37.287 53.86 37.287 30.382 0 46.955-8.2861 5.5241-33.144 22.096-46.955-60.765-2.762-106.34-30.382-45.574-26.239-48.336-122.91 0-27.62 8.2861-45.574 6.9051-17.953 23.477-34.525-2.762-8.2861-5.5241-33.144-2.762-24.858 9.6671-60.765 24.858-4.1431 58.003 15.191 34.525 17.953 37.287 22.096 41.431-12.429 87.004-12.429 44.193 0 87.004 12.429 0-1.381 17.953-12.429 16.572-11.048 38.668-19.334 22.096-9.6671 38.668-5.5241 12.429 35.906 9.6671 60.765-2.762 24.858-6.9051 33.144 16.572 16.572 26.239 34.525 9.6671 17.953 9.6671 45.574-1.381 66.289-23.477 98.052-23.477 30.382-59.384 41.43-35.906 11.048-75.956 13.81 22.096 15.191 23.477 63.527 0 51.098 0 91.147 0 17.953 0 24.858-1.381 17.953 23.477 16.572 104.96-35.906 168.48-124.29 62.146-88.385 63.527-205.77-1.381-96.671-46.955-172.63-46.955-75.956-124.29-120.15-78.718-42.812-175.39-44.193zm-204.39 476.45q-2.762 2.762 1.381 6.9051 4.1431 4.1431 6.9051 1.381 2.762-2.762-1.381-6.9051-2.762-4.1431-6.9051-1.381zm-15.191-11.048q0 2.762 4.1431 5.5241 4.1431 1.381 5.5241-1.381 1.381-2.762-2.762-5.5241-4.143-1.381-6.9051 1.381zm45.574 48.336q-2.762 4.143 1.381 9.6671 5.5241 4.1431 9.6671 1.381 1.381-4.1431-2.762-9.6671-5.5241-4.143-8.2861-1.381zm-16.572-19.334q-2.762 2.762 0 8.2861 4.1431 4.143 8.2861 2.762 2.762-2.762 0-8.2861-4.1431-5.5241-8.2861-2.762z" style="fill:url(#githubLinearGradient11);stroke-width:5.0796"/>
  <circle transform="rotate(-90)" cx="-246.22" cy="212.83" r="405.63" style="fill:none;stroke-width:15.347;stroke:url(#githubLinearGradient9)"/>
 </g>
</svg>
