<?xml version="1.0" encoding="UTF-8"?>
<!-- Created with Inkscape (http://www.inkscape.org/) -->
<svg width="10mm" height="10mm" version="1.1" viewBox="0 0 118.58 79.487" xmlns="http://www.w3.org/2000/svg" xmlns:xlink="http://www.w3.org/1999/xlink">
 <defs>
  <linearGradient id="globeLinearGradient8">
   <stop style="stop-color:#15c5fe" offset="0"/>
   <stop style="stop-color:#a100fa" offset="1"/>
  </linearGradient>
  <linearGradient id="globeLinearGradient9" x1="158.25" x2="-661.72" y1="212.79" y2="209.97" gradientUnits="userSpaceOnUse" xlink:href="#globeLinearGradient8"/>
  <linearGradient id="globeLinearGradient11" x1="296.96" x2="294.62" y1="107.91" y2="412.67" gradientTransform="matrix(3.666 0 0 3.666 -925.56 -721.83)" gradientUnits="userSpaceOnUse" xlink:href="#globeLinearGradient8"/>
 </defs>
 <g transform="matrix(.14345 0 0 .14345 28.759 4.4218)" style="fill:#a100fa">
  <path d="m212.83 527.2q8.1049 1.3508 25.665-12.157 17.561-12.157 39.174-52.682 17.561-36.472 29.718-86.452h-189.11q12.157 49.98 29.718 86.452 21.613 40.524 39.174 52.682 17.561 13.508 25.665 12.157zm-104.01-216.13h209.38-209.38 209.38q2.7016-31.069 2.7016-64.839 0-33.77-2.7016-64.839h-209.38q-4.0524 31.069-4.0524 64.839 0 33.77 4.0524 64.839zm9.4557-194.52h189.11-189.11 189.11q-12.157-49.98-29.718-86.452-21.613-40.524-39.174-52.682-17.561-13.508-25.665-12.157-8.1049-1.3508-25.665 12.157-17.561 12.157-39.174 52.682-17.561 36.472-29.718 86.452zm264.76 64.839q2.7016 31.069 2.7016 64.839 0 33.77-2.7016 64.839h102.66q8.1049-31.069 8.1049-64.839 0-33.77-8.1049-64.839zm79.698-64.839q-45.928-85.101-133.73-125.63 28.367 52.682 44.577 125.63zm-410.65 0q14.859-72.944 44.577-125.63-87.803 40.524-133.73 125.63zm-112.12 64.839q-8.1049 31.069-8.1049 64.839 0 33.77 8.1049 64.839h102.66q-2.7016-31.069-2.7016-64.839 0-33.77 2.7016-64.839zm389.03 320.14q87.803-40.524 133.73-125.63h-89.154q-14.859 72.944-44.577 125.63zm-232.34 0q-28.367-52.682-44.577-125.63h-89.154q45.928 85.101 133.73 125.63zm116.17 90.504q-94.557-1.3508-172.9-45.928-78.347-45.928-126.98-126.98-45.928-82.4-45.928-172.9 0-90.504 45.928-172.9 48.629-81.049 126.98-126.98 78.347-44.577 172.9-45.928 94.557 1.3508 172.9 45.928 78.347 45.928 126.98 126.98 45.928 82.4 45.928 172.9 0 90.504-45.928 172.9-48.629 81.049-126.98 126.98-78.347 44.577-172.9 45.928z" style="fill:url(#globeLinearGradient11);stroke-width:5.1288"/>
  <circle transform="rotate(-90)" cx="-246.22" cy="212.83" r="405.63" style="fill:none;stroke-width:15.347;stroke:url(#globeLinearGradient9)"/>
 </g>
</svg>
