<?xml version="1.0" encoding="UTF-8"?>
<!-- Created with Inkscape (http://www.inkscape.org/) -->
<svg width="10mm" height="10mm" version="1.1" viewBox="0 0 118.58 79.487" xmlns="http://www.w3.org/2000/svg" xmlns:xlink="http://www.w3.org/1999/xlink">
 <defs>
  <linearGradient id="imdbLinearGradient8">
   <stop style="stop-color:#15c5fe" offset="0"/>
   <stop style="stop-color:#a100fa" offset="1"/>
  </linearGradient>
  <linearGradient id="imdbLinearGradient9" x1="165.04" x2="-661.72" y1="212.79" y2="209.97" gradientUnits="userSpaceOnUse" xlink:href="#imdbLinearGradient8"/>
  <linearGradient id="linearGradient10" x1="2636.4" x2="2663.9" y1="3493.2" y2="-2145.6" gradientUnits="userSpaceOnUse" xlink:href="#imdbLinearGradient8"/>
  <linearGradient id="linearGradient11" x1="257.38" x2="255.48" y1="-147.55" y2="661.21" gradientUnits="userSpaceOnUse">
   <stop style="stop-color:#15c5fe" offset="0"/>
   <stop style="stop-color:#a100fa" offset="1"/>
  </linearGradient>
 </defs>
 <g transform="matrix(.14345 0 0 .14345 28.759 4.4218)">
  <g transform="matrix(1.0179 0 0 1.0179 -47.751 -14.355)" style="fill:url(#linearGradient10)">
   <path d="m5.2783 382.85h-66.736 66.736-66.736v-255.82h66.736zm122.35-135.32 16.684-120.49-16.684 120.49 16.684-120.49h87.127v255.82h-57.467v-172.4l-25.953 172.4h-38.929l-24.099-168.69v168.69h-57.467v-255.82h85.273c0 9.8867 1.2358 20.391 3.7075 31.514 1.2358 7.4151 2.4717 15.448 3.7075 24.099zm126.06 135.32v-255.82 255.82-255.82h48.198c30.896 0 51.288 1.8538 61.174 5.5613 11.123 2.4717 19.774 7.415 25.953 14.83 6.1792 4.9434 9.8868 12.358 11.123 22.245 1.2358 7.4151 1.8538 23.481 1.8538 48.198v88.981c0 22.245-0.61792 37.693-1.8538 46.344-2.4717 7.4151-6.1792 12.976-11.123 16.684-6.1792 4.9434-12.976 8.033-20.391 9.2688-8.6509 2.4717-20.391 3.7075-35.222 3.7075zm64.882-211.33v164.99-164.99 164.99c9.8868 0 16.066-1.2358 18.538-3.7075 1.2358-3.7075 1.8538-14.212 1.8538-31.514v-98.25c1.2358-11.123 1.2358-18.538 0-22.245-1.2358-3.7075-3.0896-6.7971-5.5613-9.2688h-3.7075zm107.52 211.33v-255.82 255.82-255.82h63.028v81.566c4.9434-4.9434 10.505-8.6509 16.684-11.123 7.4151-3.7075 15.448-5.5613 24.099-5.5613 8.6509 0 16.066 1.2358 22.245 3.7076 6.1792 3.7075 11.123 8.033 14.83 12.976 3.7075 3.7075 5.5613 8.033 5.5613 12.976 1.2358 2.4717 1.2358 6.7972 0 12.976v96.396c0 11.123-0.61793 20.391-1.8538 27.806-1.2358 7.4151-5.5613 12.976-12.976 16.684-8.6509 7.4151-17.92 10.505-27.806 9.2688-8.6509 0-16.684-1.2358-24.099-3.7075-6.1792-3.7075-11.741-8.6509-16.684-14.83l-3.7075 16.684zm83.419-38.929c1.2358-3.7075 1.8538-11.741 1.8538-24.099v-64.882c0-11.123-0.61793-17.92-1.8538-20.391-2.4717-3.7075-6.1792-5.5613-11.123-5.5613-3.7075 0-6.1792 1.2358-7.415 3.7075-1.2358 3.7075-1.8538 11.123-1.8538 22.245v66.736c0 12.358 0.61791 19.773 1.8538 22.245 1.2358 3.7075 3.7075 5.5613 7.415 5.5613s7.4151-1.8538 11.123-5.5613z" style="fill:url(#linearGradient11)"/>
  </g>
  <circle transform="rotate(-90)" cx="-246.22" cy="212.83" r="405.63" style="fill:none;stroke-width:15.375;stroke:url(#imdbLinearGradient9)"/>
 </g>
</svg>
