<?xml version="1.0" encoding="UTF-8"?>
<!-- Created with Inkscape (http://www.inkscape.org/) -->
<svg width="10mm" height="10mm" version="1.1" viewBox="0 0 118.58 79.487" xmlns="http://www.w3.org/2000/svg" xmlns:xlink="http://www.w3.org/1999/xlink">
 <defs>
  <linearGradient id="instagramLinearGradient8">
   <stop style="stop-color:#15c5fe" offset="0"/>
   <stop style="stop-color:#a100fa" offset="1"/>
  </linearGradient>
  <linearGradient id="instagramLinearGradient9" x1="158.25" x2="-661.72" y1="212.79" y2="209.97" gradientUnits="userSpaceOnUse" xlink:href="#instagramLinearGradient8"/>
  <linearGradient id="instagramLinearGradient11" x1="296.96" x2="294.62" y1="107.91" y2="412.67" gradientTransform="matrix(3.1658 0 0 3.1658 -770.26 -589.76)" gradientUnits="userSpaceOnUse" xlink:href="#instagramLinearGradient8"/>
 </defs>
 <g transform="matrix(.14345 0 0 .14345 28.759 4.4218)" style="fill:#a100fa">
  <path d="m212.83 92.915q-65.326 1.3332-107.99 45.328-43.995 42.662-45.328 107.99 1.3332 65.326 45.328 107.99 42.662 43.995 107.99 45.328 65.326-1.3332 107.99-45.328 43.995-42.662 45.328-107.99-1.3332-65.326-45.328-107.99-42.662-43.995-107.99-45.328zm0 253.3q-42.662-1.3332-70.658-29.33-27.997-27.997-29.33-70.658 1.3332-42.662 29.33-70.658t70.658-29.33q42.662 1.3332 70.658 29.33 27.997 27.997 29.33 70.658-1.3332 42.662-29.33 70.658-27.997 27.997-70.658 29.33zm195.98-259.97q-3.9995 33.329-35.996 35.996-33.329-2.6664-35.996-35.996 0-14.665 10.665-25.33 9.3322-9.3322 25.33-9.3322 14.665 0 25.33 9.3322 9.3322 10.665 10.665 25.33zm101.32 37.329q0-73.325-49.328-125.32-51.994-49.328-123.99-49.328-26.664-1.3332-75.991-1.3332-47.994 0-95.989 0-49.328 0-74.658 1.3332-71.992 0-125.32 49.328-49.328 51.994-47.994 123.99-2.6664 26.664-2.6664 75.991 0 47.994 0 95.989 0 47.994 2.6664 74.658-1.3332 73.325 47.994 125.32 51.994 49.328 125.32 47.994 25.33 1.3332 74.658 2.6664 47.994 0 95.989 0 49.328-1.3332 75.991-2.6664 71.992 1.3332 123.99-47.994 49.328-51.994 49.328-125.32 1.3332-26.664 1.3332-74.658 0-47.994 0-95.989 0-49.328-1.3332-75.991zm-63.993 298.63q-17.331 39.995-57.327 57.327-26.664 9.3322-71.992 10.665-45.328 1.3332-82.657 1.3332-11.999 0-21.331 0-9.3322 0-21.331 0-37.329 0-82.657-1.3332-43.995-1.3332-71.992-10.665-39.995-17.331-57.327-57.327-9.3322-27.997-10.665-71.992-1.3332-45.328-1.3332-82.657 0-11.999 0-21.331 0-9.3322 0-21.331 0-37.329 1.3332-82.657 1.3332-45.328 10.665-71.992 17.331-39.995 57.327-57.327 27.997-9.3322 71.992-10.665 45.328-2.6664 82.657-1.3332 11.999 0 21.331 0 9.3322 0 21.331 0 37.329 0 82.657 1.3332 45.328 1.3332 71.992 10.665 39.995 17.331 57.327 57.327 9.3322 26.664 10.665 71.992 2.6664 45.328 1.3332 82.657 0 11.999 0 21.331 0 9.3322 0 21.331 1.3332 37.329-1.3332 82.657-1.3332 45.328-10.665 71.992z" style="fill:url(#instagramLinearGradient11);stroke-width:4.4291"/>
  <circle transform="rotate(-90)" cx="-246.22" cy="212.83" r="405.63" style="fill:none;stroke-width:15.347;stroke:url(#instagramLinearGradient9)"/>
 </g>
</svg>
