<?xml version="1.0" encoding="UTF-8"?>
<!-- Created with Inkscape (http://www.inkscape.org/) -->
<svg width="10mm" height="10mm" version="1.1" viewBox="0 0 118.58 79.487" xmlns="http://www.w3.org/2000/svg" xmlns:xlink="http://www.w3.org/1999/xlink">
 <defs>
  <linearGradient id="keybaseLinearGradient8">
   <stop style="stop-color:#15c5fe" offset="0"/>
   <stop style="stop-color:#a100fa" offset="1"/>
  </linearGradient>
  <linearGradient id="keybaseLinearGradient9" x1="158.25" x2="-661.72" y1="212.79" y2="209.97" gradientUnits="userSpaceOnUse" xlink:href="#keybaseLinearGradient8"/>
  <linearGradient id="keybaseLinearGradient11" x1="296.96" x2="294.62" y1="107.91" y2="412.67" gradientTransform="matrix(2.9177 0 0 2.9177 -694.21 -521.84)" gradientUnits="userSpaceOnUse" xlink:href="#keybaseLinearGradient8"/>
 </defs>
 <g transform="matrix(.14345 0 0 .14345 28.759 4.4218)" style="fill:#a100fa">
  <path d="m288.54 444.68q-19.485 2.4356-21.92 21.92 2.4356 19.485 21.92 21.92 20.702-2.4356 21.92-21.92-1.2178-19.485-21.92-21.92zm136.39-180.23q-8.5245-14.614-35.316-41.405-26.791-26.791-70.632-47.494-10.96-4.8712-23.138-9.7423 15.831-37.752-1.2178-75.503-18.267-37.752-56.018-51.147-23.138-7.3068-40.187-6.089-1.2178-2.4356 0-12.178 2.4356-9.7423 12.178-30.445l-28.009-17.049-7.3068 9.7423q-15.831 21.92-29.227 41.405-4.8712-1.2178-9.7423-1.2178-15.831-1.2178-24.356-1.2178-18.267-1.2178-21.92-1.2178-3.6534 0-4.8712 0-38.969 2.4356-51.147 25.574-10.96 23.138-9.7423 30.445 0 1.2178 0 0l-3.6534 43.84q0 25.574 15.831 43.841 17.049 17.049 42.623 19.485l10.96 1.2178q-31.663 17.049-56.018 42.623-54.801 58.454-66.979 118.13t-9.7423 112.04v40.187l28.009-35.316q6.089 23.138 18.267 45.058 12.178 15.831 24.356 8.5245 3.6534-1.2178 6.089-6.089 3.6534-6.089-2.4356-18.267-14.614-30.445-18.267-64.543l56.018-73.068-29.227 91.334q54.801-40.187 133.96-53.583 79.156-14.614 153.44 6.089 31.663 8.5246 59.672 1.2178 26.791-7.3068 43.84-30.445 0-1.2178 1.2178-2.4356 0 0 1.2178-1.2178 2.4356 17.049 2.4356 34.098 1.2178 45.058-18.267 99.859-2.4356 14.614 10.96 19.485 14.614 1.2178 21.92-13.396 18.267-47.494 18.267-105.95-1.2178-71.85-43.841-135.17zm-311.75-172.93-18.267-1.2178 18.267 1.2178-18.267-1.2178-2.4356 25.574 15.831 1.2178q0 12.178 1.2178 24.356l-28.009-2.4356q-6.089 0-9.7423-4.8712-4.8712-3.6534-3.6534-9.7423l2.4356-45.058q1.2178-9.7423 8.5245-12.178 6.089-2.4356 7.3068-1.2178l35.316 1.2178q-4.8712 12.178-8.5246 24.356zm181.45 209.46q-9.7423 6.089-18.267-2.4356l-10.96-13.396-42.623 32.88q-7.3068 4.8712-13.396-1.2178l-19.485-23.138q-3.6534-7.3068 2.4356-12.178l41.405-32.88-17.049-20.702-20.702 15.831q-7.3068 4.8712-12.178-1.2178-2.4356-2.4356-4.8712-4.8712-4.8712-7.3068 1.2178-13.396l20.702-15.831q-1.2178-1.2178-10.96-13.396-9.7423-10.96-12.178-13.396-2.4356-3.6534-2.4356-8.5246 1.2178-4.8712 4.8712-7.3068 9.7423-6.089 17.049 1.2178l99.859 116.91q2.4356 3.6534 1.2178 8.5245 0 4.8712-3.6534 8.5245zm-126.65 143.7q-19.485 2.4356-21.92 21.92 2.4356 19.485 21.92 21.92 20.702-2.4356 21.92-21.92-1.2178-19.485-21.92-21.92z" style="fill:url(#keybaseLinearGradient11);stroke-width:4.0819"/>
  <circle transform="rotate(-90)" cx="-246.22" cy="212.83" r="405.63" style="fill:none;stroke-width:15.347;stroke:url(#keybaseLinearGradient9)"/>
 </g>
</svg>
