<?xml version="1.0" encoding="UTF-8"?>
<!-- Created with Inkscape (http://www.inkscape.org/) -->
<svg width="10mm" height="10mm" version="1.1" viewBox="0 0 118.58 79.487" xmlns="http://www.w3.org/2000/svg" xmlns:xlink="http://www.w3.org/1999/xlink">
 <defs>
  <linearGradient id="kofiLinearGradient8">
   <stop style="stop-color:#15c5fe" offset="0"/>
   <stop style="stop-color:#a100fa" offset="1"/>
  </linearGradient>
  <linearGradient id="kofiLinearGradient9" x1="158.25" x2="-661.72" y1="212.79" y2="209.97" gradientUnits="userSpaceOnUse" xlink:href="#kofiLinearGradient8"/>
  <linearGradient id="kofiLinearGradient11" x1="296.96" x2="322.57" y1="-777.14" y2="1235.6" gradientTransform="matrix(.4527 0 0 .4527 46.464 153.87)" gradientUnits="userSpaceOnUse" xlink:href="#kofiLinearGradient8"/>
 </defs>
 <g transform="matrix(.14345 0 0 .14345 28.759 4.4218)" style="fill:#a100fa">
  <path d="m195.06 22.232c-77.211 0-142.57 0.74799-195.3 7.4323-69.801 8.9193-129.21 62.372-129.21 161.14h-0.019c0 100.24 5.1906 175.26 45.296 242.82 45.299 77.231 121.04 119.55 219.07 119.55h23.758c120.3 0 185.65-63.864 218.32-114.36 14.114-22.29 24.501-44.55 31.184-66.84 85.403-7.4083 148.53-77.955 148.53-164.11v-11.879c0-92.834-60.883-157.44-165.6-167.83-44.554-4.4491-75.734-5.9395-196.03-5.9395zm-0.0257 55.695c120.31 0 145.57 1.4887 187.89 5.1931 75.016 8.898 118.08 45.3 118.08 114.36v11.133c0 61.648-51.237 109.9-110.65 109.9h-26.737l-4.453 18.565c-5.9383 28.973-17.066 51.982-29.691 72.779-25.991 40.83-72.782 87.619-169.32 87.619h-23.011c-73.526 0-138.13-25.242-173.77-91.338-31.185-57.178-37.13-118.81-37.13-214.6h-0.01903c0-62.371 24.524-97.264 86.151-106.18 43.809-6.6844 101.73-7.426 182.66-7.426zm187.18 65.36c-11.88 0-18.565 6.6855-18.565 15.605v83.919c0.0134 8.9063 6.6964 15.579 18.565 15.579 37.871 0 58.668-21.54 58.668-57.175s-20.797-57.928-58.668-57.928zm-297.05 5.1994c-51.983 0-86.151 42.324-86.151 89.858h0.01903c0 43.81 24.502 81.678 55.688 111.4 20.797 20.049 53.473 40.849 75.74 54.215 6.6837 3.7074 13.373 5.946 20.804 5.946 8.9172 0 16.323-2.2386 22.284-5.946 22.287-13.366 54.944-34.165 75-54.215 31.929-29.698 56.428-67.566 56.428-111.4 0-47.534-35.632-89.858-86.872-89.858-30.44 0-51.24 15.608-66.84 37.13-14.115-21.543-35.638-37.13-66.1-37.13z" style="fill:url(#kofiLinearGradient11);stroke-width:.63334"/>
  <circle transform="rotate(-90)" cx="-246.22" cy="212.83" r="405.63" style="fill:none;stroke-width:15.347;stroke:url(#kofiLinearGradient9)"/>
 </g>
</svg>
