<?xml version="1.0" encoding="UTF-8"?>
<!-- Created with Inkscape (http://www.inkscape.org/) -->
<svg width="10mm" height="10mm" version="1.1" viewBox="0 0 118.58 79.487" xmlns="http://www.w3.org/2000/svg" xmlns:xlink="http://www.w3.org/1999/xlink">
 <defs>
  <linearGradient id="redditLinearGradient8">
   <stop style="stop-color:#15c5fe" offset="0"/>
   <stop style="stop-color:#a100fa" offset="1"/>
  </linearGradient>
  <linearGradient id="redditLinearGradient9" x1="158.25" x2="-661.72" y1="212.79" y2="209.97" gradientUnits="userSpaceOnUse" xlink:href="#redditLinearGradient8"/>
  <linearGradient id="redditLinearGradient11" x1="296.96" x2="294.62" y1="107.91" y2="412.67" gradientTransform="matrix(3.0312 0 0 3.0312 -728.44 -554.2)" gradientUnits="userSpaceOnUse" xlink:href="#redditLinearGradient8"/>
 </defs>
 <g transform="matrix(.14345 0 0 .14345 28.759 4.4218)" style="fill:#a100fa">
  <path d="m-73.095 246.23q1.1169-80.417 39.092-144.08 37.975-64.781 102.76-102.76 63.664-37.975 144.08-39.092 80.417 1.1169 144.08 39.092 64.781 37.975 102.76 102.76 37.975 63.664 39.092 144.08-1.1169 80.417-39.092 144.08-37.975 64.781-102.76 102.76-63.664 37.975-144.08 39.092h-244.6q-11.169-1.1169-15.637-10.052-4.4676-10.052 3.3507-18.987l54.729-54.729q-39.092-39.092-61.43-90.47-22.338-52.495-22.338-111.69zm390.92-113.92q20.104-1.1169 33.507-14.52 13.403-13.403 13.403-33.507 0-20.104-13.403-33.507-13.403-13.403-33.507-14.52-17.871 1.1169-31.273 11.169-12.286 10.052-15.637 26.806-30.157 4.4676-49.144 25.689-18.987 20.104-20.104 51.378-63.664 3.3507-110.57 32.39-16.754-13.403-40.209-14.52-27.923 1.1169-46.91 20.104-18.987 18.987-20.104 46.91 2.2338 42.443 39.092 60.313 3.3507 60.313 56.962 99.405 53.612 39.092 132.91 41.326 80.417-2.2338 134.03-41.326 53.612-39.092 56.962-99.405 35.741-17.871 37.975-60.313-1.1169-27.923-20.104-46.91-18.987-18.987-46.91-20.104-23.455 1.1169-40.209 14.52-48.027-29.04-111.69-32.39 0-22.338 13.403-37.975 13.403-14.52 34.624-17.871 4.4676 15.637 16.754 25.689 12.286 10.052 30.157 10.052zm-193.23 103.87q14.52 0 23.455 12.286 8.9353 13.403 8.9353 31.273-4.4676 34.624-34.624 33.507-14.52 0-24.572-7.8184-8.9353-8.9353-8.9353-26.806 1.1169-17.871 11.169-30.157 10.052-12.286 24.572-12.286zm212.21 42.443q1.1169 17.871-8.9353 26.806-10.052 7.8184-24.572 7.8184-30.157 1.1169-33.507-33.507-1.1169-18.987 7.8184-31.273 8.9353-12.286 23.455-12.286t24.572 12.286q10.052 11.169 11.169 30.157zm-53.612 63.664q-8.9353 21.221-27.923 33.507-17.871 12.286-42.443 13.403-24.572-1.1169-42.443-13.403-18.987-12.286-27.923-33.507-1.1169-5.5846 4.4676-7.8184 31.273-2.2338 65.898-2.2338t65.898 2.2338q5.5845 2.2338 4.4676 7.8184z" style="fill:url(#redditLinearGradient11);stroke-width:4.2407"/>
  <circle transform="rotate(-90)" cx="-246.22" cy="212.83" r="405.63" style="fill:none;stroke-width:15.347;stroke:url(#redditLinearGradient9)"/>
 </g>
</svg>
